<?xml version="1.0" standalone="no"?>
<!DOCTYPE svg PUBLIC "-//W3C//DTD SVG 20010904//EN"
 "http://www.w3.org/TR/2001/REC-SVG-20010904/DTD/svg10.dtd">
<svg version="1.0" xmlns="http://www.w3.org/2000/svg"
 width="260.000000pt" height="260.000000pt" viewBox="0 0 260.000000 260.000000"
 preserveAspectRatio="xMidYMid meet">
<metadata>
Created by potrace 1.11, written by Peter Selinger 2001-2013
</metadata>
<g transform="translate(0.000000,260.000000) scale(0.100000,-0.100000)"
fill="#000000" stroke="none">
<path d="M1199 2370 c-83 -8 -228 -38 -244 -50 -5 -4 -28 -13 -50 -20 -135
-42 -335 -194 -455 -345 -193 -242 -267 -576 -201 -895 12 -57 26 -109 30
-115 5 -5 14 -28 21 -50 18 -60 75 -161 136 -243 256 -341 668 -501 1080 -418
518 103 885 560 870 1085 -7 244 -70 426 -212 618 -127 171 -319 315 -504 378
-3 1 -17 7 -32 13 -76 31 -315 54 -439 42z m211 -750 l0 -220 220 0 220 0 0
-105 0 -105 -217 -2 -218 -3 -3 -217 -2 -218 -105 0 -105 0 0 220 0 220 -220
0 -220 0 0 105 0 105 220 0 220 0 0 220 0 220 105 0 105 0 0 -220z"/>
</g>
</svg>
